<?xml version="1.0" standalone="no"?><!DOCTYPE svg PUBLIC "-//W3C//DTD SVG 1.1//EN" "http://www.w3.org/Graphics/SVG/1.1/DTD/svg11.dtd"><svg t="1493432690209" class="icon" style="" viewBox="0 0 1024 1024" version="1.1" xmlns="http://www.w3.org/2000/svg" p-id="1537" xmlns:xlink="http://www.w3.org/1999/xlink" width="200" height="200"><defs><style type="text/css"></style></defs><path d="M511.998465 0.023536C229.227934 0.023536 0.004093 229.242078 0.004093 512c0 282.758945 229.224864 511.975441 511.994372 511.975441 282.769508 0 511.997442-229.216495 511.997442-511.975441C1023.995907 229.242078 794.767973 0.023536 511.998465 0.023536zM511.998465 977.433428c-257.066073 0-465.451475-208.398354-465.451475-465.432405 0-257.0801 208.385402-465.432405 465.451475-465.432405 257.066073 0 465.451475 208.354352 465.451475 465.432405C977.44994 769.033028 769.064538 977.433428 511.998465 977.433428zM767.997186 512.002047 535.269401 512.002047 535.269401 209.469756c0-12.861936-10.428941-23.271006-23.270936-23.271006-12.839949 0-23.272983 10.408047-23.272983 23.271006L488.725482 535.271006c0 12.841469 10.433034 23.27203 23.272983 23.27203l255.998721 0c12.839949 0 23.272983-10.43056 23.272983-23.27203C791.268122 522.411117 780.837135 512.002047 767.997186 512.002047z" p-id="1538" fill="#777777"></path></svg>